<?xml version="1.0" encoding="UTF-8"?>
<svg version="1.1" xmlns="http://www.w3.org/2000/svg" width="274" height="74">
<path d="M0 0 C90.42 0 180.84 0 274 0 C274 24.42 274 48.84 274 74 C183.58 74 93.16 74 0 74 C0 49.58 0 25.16 0 0 Z " fill="#FDFCFE" transform="translate(0,0)"/>
<path d="M0 0 C2.66232739 1.07526097 4.62242962 2.34603799 7 4 C7.33 3.01 7.66 2.02 8 1 C10.31 1 12.62 1 15 1 C15 12.88 15 24.76 15 37 C12.69 37 10.38 37 8 37 C7.67 36.01 7.34 35.02 7 34 C6.01 34.66 5.02 35.32 4 36 C0.03715537 38.23258852 -3.51703729 38.82986142 -8 38 C-14.20627153 36.05766687 -17.92547925 32.68720361 -21 27 C-22.69582898 21.91251305 -22.99131523 16.04758626 -21.31640625 10.8984375 C-16.61023721 2.03287424 -9.63886446 -1.1060992 0 0 Z " fill="#47109B" transform="translate(251,24)"/>
<path d="M0 0 C5.28973166 2.24341298 9.86984022 5.69347751 12.4140625 10.9453125 C13.9793865 16.434382 13.66590595 21.92394028 11.9375 27.3125 C8.58950717 31.95649006 4.3363909 35.79911562 -1 38 C-7.34159451 39.02457734 -12.09055822 38.16325974 -17.3125 34.42578125 C-21.68064832 30.73510038 -24.53202847 26.69413889 -25.2578125 20.96484375 C-25.55564384 15.17698811 -24.58217189 10.63061245 -21 6 C-14.93482947 -0.01387945 -8.34262066 -1.65299266 0 0 Z " fill="#48119C" transform="translate(129,24)"/>
<path d="M0 0 C1.2065625 0.0309375 1.2065625 0.0309375 2.4375 0.0625 C7.7777695 13.03953211 13.10898071 26.01843939 18.125 39.125 C18.46337891 40.00373779 18.80175781 40.88247559 19.15039062 41.7878418 C19.45525391 42.59133057 19.76011719 43.39481934 20.07421875 44.22265625 C20.33936279 44.92011963 20.60450684 45.61758301 20.87768555 46.33618164 C21.4375 48.0625 21.4375 48.0625 21.4375 50.0625 C17.4775 50.0625 13.5175 50.0625 9.4375 50.0625 C8.25546262 47.86125692 7.09209892 45.65308171 5.9375 43.4375 C5.60363281 42.82003906 5.26976562 42.20257813 4.92578125 41.56640625 C2.85280572 37.54737206 2.04889553 34.57308755 2.4375 30.0625 C0.4575 29.7325 -1.5225 29.4025 -3.5625 29.0625 C-3.418125 30.114375 -3.27375 31.16625 -3.125 32.25 C-3.04169003 38.85529043 -7.28420946 44.57638114 -10.5625 50.0625 C-14.5225 50.0625 -18.4825 50.0625 -22.5625 50.0625 C-18.676268 39.60636953 -14.69948771 29.18987343 -10.6105957 18.8112793 C-9.7303834 16.57516549 -8.85442917 14.33741005 -7.97851562 12.09960938 C-7.4169215 10.67177474 -6.8550825 9.2440364 -6.29296875 7.81640625 C-6.03259323 7.14992569 -5.77221771 6.48344513 -5.50395203 5.79676819 C-3.2427806 0.07909221 -3.2427806 0.07909221 0 0 Z " fill="#A139A0" transform="translate(164.5625,10.9375)"/>
<path d="M0 0 C4.2502579 2.50015171 6.9531181 5.40623621 9.1875 9.875 C9.1875 13.505 9.1875 17.135 9.1875 20.875 C0.2775 20.875 -8.6325 20.875 -17.8125 20.875 C-15.47401858 26.79231018 -15.47401858 26.79231018 -11.8125 28.875 C-6.36722312 29.50259123 -1.83051573 29.08883047 3.1875 26.875 C5.5 27.25 5.5 27.25 7.1875 27.875 C7.6825 29.855 7.6825 29.855 8.1875 31.875 C1.00482155 36.56572878 -6.36629498 37.12628963 -14.8125 35.875 C-20.47667641 32.73268305 -23.74976157 29.06321529 -25.8125 22.875 C-26.29764482 17.36343667 -26.57987316 12.49828938 -24.1875 7.4375 C-16.85077499 -0.47844015 -10.69403278 -3.15561623 0 0 Z " fill="#470F9B" transform="translate(32.8125,25.125)"/>
<path d="M0 0 C2.64 0 5.28 0 8 0 C8.01401855 1.10456543 8.01401855 1.10456543 8.02832031 2.23144531 C8.08204155 5.57164218 8.16568622 8.91044119 8.25 12.25 C8.26417969 13.40886719 8.27835938 14.56773438 8.29296875 15.76171875 C8.32519531 16.87675781 8.35742188 17.99179687 8.390625 19.140625 C8.41157227 20.16704102 8.43251953 21.19345703 8.45410156 22.25097656 C9.1345072 25.67734844 10.26400506 26.88553958 13 29 C16.45238782 29.50347322 18.26782014 29.41556154 21.3125 27.6875 C24.25204582 24.74795418 24.16348848 21.62979788 24.31640625 17.67578125 C24.35830078 16.64775391 24.40019531 15.61972656 24.44335938 14.56054688 C24.48267578 13.48869141 24.52199219 12.41683594 24.5625 11.3125 C24.60568359 10.22904297 24.64886719 9.14558594 24.69335938 8.02929688 C24.79946838 5.35299209 24.90152361 2.67659474 25 0 C27.31 0 29.62 0 32 0 C32.11710979 3.99974981 32.18755489 7.99905281 32.25 12 C32.30027344 13.68802734 32.30027344 13.68802734 32.3515625 15.41015625 C32.42953525 22.07682613 32.22058786 27.58903445 28 33 C23.28523481 37.00715287 18.25906964 36.55054867 12.328125 36.4140625 C7.50069586 35.81346686 6.03035244 34.7674652 3 31 C-1.04252929 25.11995739 -0.33813481 18.96922763 -0.1875 12.125 C-0.17396484 10.9596875 -0.16042969 9.794375 -0.14648438 8.59375 C-0.11125821 5.72868882 -0.06199715 2.86458623 0 0 Z " fill="#48119C" transform="translate(46,25)"/>
<path d="M0 0 C4.36765288 0.04537821 7.42074783 0.14269798 10.75 3.25 C11.5625 5.4375 11.5625 5.4375 11.75 7.25 C10 8.375 10 8.375 7.75 9.25 C6.39914193 8.61959957 5.06747324 7.94748583 3.75 7.25 C0.58304044 7.08275263 0.58304044 7.08275263 -2.25 7.25 C-2.58 8.9 -2.91 10.55 -3.25 12.25 C-2.27417969 12.70890625 -1.29835937 13.1678125 -0.29296875 13.640625 C0.99244775 14.25987674 2.27758975 14.8796985 3.5625 15.5 C4.20509766 15.80035156 4.84769531 16.10070313 5.50976562 16.41015625 C9.13707769 18.17682638 11.86721228 19.60297046 13.75 23.25 C14.1633093 26.4149301 13.74277527 29.22311452 12.75 32.25 C10.54359242 34.9759396 7.88746486 36.68126757 4.75 38.25 C-0.72515243 38.67942372 -4.39848595 37.81306402 -9.25 35.25 C-11.6875 33.0625 -11.6875 33.0625 -13.25 31.25 C-12.25 28.25 -12.25 28.25 -10.1875 27.0625 C-9.548125 26.794375 -8.90875 26.52625 -8.25 26.25 C-7.2290625 27.24 -7.2290625 27.24 -6.1875 28.25 C-2.59032715 30.69913896 -0.51703842 30.66029216 3.75 30.25 C5.04633621 29.18354885 5.04633621 29.18354885 4.8125 26.6875 C4.791875 25.883125 4.77125 25.07875 4.75 24.25 C3.76257813 23.79109375 2.77515625 23.3321875 1.7578125 22.859375 C0.46323301 22.24022829 -0.83102107 21.62040086 -2.125 21 C-2.77597656 20.69964844 -3.42695313 20.39929688 -4.09765625 20.08984375 C-6.82264464 18.76948855 -8.90549499 17.74065865 -10.66796875 15.23046875 C-11.60907496 12.02818119 -11.65724016 9.56609841 -11.25 6.25 C-8.8125 3.375 -8.8125 3.375 -6.25 1.25 C-4.535532 -0.464468 -2.33657934 0.03748523 0 0 Z " fill="#4A129C" transform="translate(199.25,23.75)"/>
<path d="M0 0 C3.18403563 1.42092665 5.16311889 3.02573121 7 6 C8.03676083 10.51492621 8.12295447 14.82189208 5.96484375 19.0078125 C3.87102974 21.65869629 2.21016548 22.92994484 -1 24 C-6.83700441 24.66079295 -6.83700441 24.66079295 -9.71875 23.0234375 C-12.57958095 20.73757748 -14.95936735 18.53815101 -16 15 C-16.480151 10.67864101 -16.29173086 8.5331633 -14.1875 4.6875 C-10.05011764 -0.39556976 -6.22705019 -1.1218983 0 0 Z " fill="#FAF8FC" transform="translate(252,31)"/>
<path d="M0 0 C3.3258409 2.062783 6.23502468 4.47004936 8 8 C8.40137875 12.17433895 8.26194303 14.49551713 6.3125 18.25 C2.97520532 22.21867475 0.71950578 23.74989007 -4.4375 24.5 C-9.16675851 23.83624442 -10.65681791 22.34318209 -14 19 C-15.86233425 15.27533151 -15.57130829 11.05504687 -15 7 C-11.70960058 0.84891751 -6.81164884 -1.3353772 0 0 Z " fill="#FAF9FC" transform="translate(127,31)"/>
<path d="M0 0 C0 2.31 0 4.62 0 7 C-1.98567708 7.22786458 -3.97135417 7.45572917 -5.95703125 7.68359375 C-8.19396393 7.97170735 -8.19396393 7.97170735 -11 9 C-13.66196542 14.4506911 -13.44094981 20.43171267 -13.625 26.375 C-13.68300781 27.90833984 -13.68300781 27.90833984 -13.7421875 29.47265625 C-13.83597964 31.98159597 -13.92167879 34.49053764 -14 37 C-16.31 37 -18.62 37 -21 37 C-21 25.12 -21 13.24 -21 1 C-18.69 1 -16.38 1 -14 1 C-13.67 1.99 -13.34 2.98 -13 4 C-12.34 3.34 -11.68 2.68 -11 2 C-6.98141147 -0.67905902 -4.74694284 -0.32182663 0 0 Z " fill="#430A99" transform="translate(105,24)"/>
<path d="M0 0 C2.64 0 5.28 0 8 0 C8 11.88 8 23.76 8 36 C5.36 36 2.72 36 0 36 C0 24.12 0 12.24 0 0 Z " fill="#511CA1" transform="translate(217,25)"/>
<path d="M0 0 C3.3125 2.1875 3.3125 2.1875 6 5 C6.33 6.65 6.66 8.3 7 10 C0.07 10 -6.86 10 -14 10 C-12 4 -12 4 -9.25 1.625 C-5.64126962 -0.17936519 -3.95809064 -0.742142 0 0 Z " fill="#EEE9F6" transform="translate(28,30)"/>
<path d="M0 0 C3.29714793 0.32971479 4.6226839 0.6226839 7 3 C6.625 6.125 6.625 6.125 6 9 C3.69 9.33 1.38 9.66 -1 10 C-3 7 -3 7 -2.75 4.4375 C-2 2 -2 2 0 0 Z " fill="#A23BA1" transform="translate(219,10)"/>
<path d="M0 0 C2.125 0.375 2.125 0.375 4 1 C4.38218767 2.65614657 4.71395102 4.32457024 5 6 C4 7 4 7 1.4375 7.0625 C0.2309375 7.0315625 0.2309375 7.0315625 -1 7 C-1.625 4.625 -1.625 4.625 -2 2 C-1.34 1.34 -0.68 0.68 0 0 Z " fill="#F6EDF6" transform="translate(164,23)"/>
</svg>
